PathFileType	4	(X/Y/Z)	C:\Users\86182\Documents\cortex\Trimmed_M4_H8.trc
DataRate	CameraRate	NumFrames	NumMarkers	Units	OrigDataRate	OrigDataStartFrame	OrigNumFrames
100.00	100.00	       98	2	mm	100.00	721	       901
Frame#	Time	gripper			box			
		X1	Y1	Z1	X2	Y2	Z2	

721	7.200	276.11163	151.11603	292.29630	278.02014	148.12534	154.59618	
722	7.210	276.11020	151.11618	292.29709	278.02625	148.12692	154.59711	
723	7.220	276.10730	151.11674	292.29825	278.02948	148.12723	154.59851	
724	7.230	276.10309	151.11771	292.29968	278.02921	148.12633	154.59982	
725	7.240	276.09799	151.11896	292.30118	278.02548	148.12456	154.60059	
726	7.250	276.09277	151.12030	292.30261	278.01913	148.12230	154.60059	
727	7.260	276.08826	151.12155	292.30371	278.01160	148.11993	154.59999	
728	7.270	276.08517	151.12248	292.30432	278.00446	148.11783	154.59908	
729	7.280	276.08380	151.12300	292.30441	277.99908	148.11633	154.59811	
730	7.290	276.08414	151.12308	292.30402	277.99588	148.11557	154.59726	
731	7.300	276.08597	151.12273	292.30328	277.99454	148.11549	154.59653	
732	7.310	276.08911	151.12195	292.30234	277.99426	148.11601	154.59575	
733	7.320	276.09320	151.12083	292.30133	277.99432	148.11702	154.59474	
734	7.330	276.09747	151.11963	292.30035	277.99399	148.11832	154.59337	
735	7.340	276.10098	151.11865	292.29950	277.99268	148.11955	154.59163	
736	7.350	276.10291	151.11815	292.29895	277.99054	148.12045	154.58977	
737	7.360	276.10300	151.11824	292.29871	277.98831	148.12088	154.58817	
738	7.370	276.10153	151.11885	292.29871	277.98700	148.12091	154.58719	
739	7.380	276.09915	151.11975	292.29877	277.98706	148.12054	154.58708	
740	7.390	276.09662	151.12068	292.29895	277.98804	148.11972	154.58789	
741	7.400	276.09424	151.12146	292.29929	277.98904	148.11847	154.58942	
742	7.410	276.09195	151.12204	292.29993	277.98959	148.11710	154.59122	
743	7.420	276.08957	151.12253	292.30087	277.98990	148.11595	154.59286	
744	7.430	276.08704	151.12300	292.30194	277.99039	148.11505	154.59433	
745	7.440	276.08469	151.12347	292.30283	277.99124	148.11421	154.59567	
746	7.450	276.08316	151.12386	292.30331	277.99222	148.11340	154.59679	
747	7.460	276.08310	151.12396	292.30316	277.99268	148.11279	154.59731	
748	7.470	276.08490	151.12369	292.30225	277.99225	148.11252	154.59702	
749	7.480	276.08871	151.12296	292.30072	277.99097	148.11264	154.59598	
750	7.490	276.09424	151.12173	292.29877	277.98947	148.11320	154.59445	
751	7.500	276.10040	151.12021	292.29694	277.98849	148.11423	154.59280	
752	7.510	276.10568	151.11871	292.29568	277.98889	148.11560	154.59146	
753	7.520	276.10867	151.11766	292.29538	277.99097	148.11705	154.59085	
754	7.530	276.10898	151.11723	292.29596	277.99438	148.11819	154.59125	
755	7.540	276.10706	151.11742	292.29718	277.99835	148.11879	154.59261	
756	7.550	276.10388	151.11797	292.29855	278.00217	148.11890	154.59468	
757	7.560	276.10074	151.11861	292.29977	278.00568	148.11879	154.59697	
758	7.570	276.09860	151.11909	292.30054	278.00873	148.11888	154.59892	
759	7.580	276.09799	151.11928	292.30063	278.01093	148.11923	154.60016	
760	7.590	276.09875	151.11923	292.30011	278.01169	148.11964	154.60057	
761	7.600	276.10019	151.11917	292.29907	278.01096	148.11993	154.60016	
762	7.610	276.10156	151.11929	292.29779	278.00925	148.12027	154.59901	
763	7.620	276.10236	151.11971	292.29633	278.00729	148.12093	154.59729	
764	7.630	276.10251	151.12042	292.29480	278.00540	148.12195	154.59525	
765	7.640	276.10196	151.12137	292.29337	278.00357	148.12314	154.59314	
766	7.650	276.10062	151.12244	292.29230	278.00171	148.12416	154.59134	
767	7.660	276.09872	151.12349	292.29172	277.99994	148.12466	154.59015	
768	7.670	276.09662	151.12436	292.29163	277.99841	148.12440	154.58987	
769	7.680	276.09464	151.12497	292.29202	277.99722	148.12346	154.59052	
770	7.690	276.09277	151.12524	292.29288	277.99664	148.12210	154.59183	
771	7.700	276.09097	151.12527	292.29425	277.99680	148.12065	154.59352	
772	7.710	276.08896	151.12518	292.29596	277.99741	148.11913	154.59537	
773	7.720	276.08679	151.12512	292.29779	277.99774	148.11757	154.59720	
774	7.730	276.08490	151.12508	292.29938	277.99747	148.11615	154.59871	
775	7.740	276.08395	151.12497	292.30032	277.99658	148.11510	154.59967	
776	7.750	276.08438	151.12474	292.30048	277.99527	148.11456	154.59991	
777	7.760	276.08621	151.12440	292.29971	277.99390	148.11456	154.59949	
778	7.770	276.08926	151.12398	292.29816	277.99274	148.11487	154.59863	
779	7.780	276.09311	151.12346	292.29614	277.99152	148.11511	154.59766	
780	7.790	276.09732	151.12282	292.29413	277.98959	148.11484	154.59683	
781	7.800	276.10153	151.12201	292.29242	277.98685	148.11398	154.59624	
782	7.810	276.10526	151.12109	292.29126	277.98361	148.11278	154.59587	
783	7.820	276.10776	151.12030	292.29086	277.98032	148.11147	154.59569	
784	7.830	276.10834	151.11986	292.29126	277.97699	148.11006	154.59575	
785	7.840	276.10672	151.11987	292.29251	277.97379	148.10855	154.59608	
786	7.850	276.10315	151.12029	292.29449	277.97079	148.10709	154.59659	
787	7.860	276.09836	151.12094	292.29700	277.96805	148.10591	154.59698	
788	7.870	276.09323	151.12167	292.29956	277.96570	148.10518	154.59717	
789	7.880	276.08844	151.12239	292.30194	277.96414	148.10489	154.59717	
790	7.890	276.08444	151.12305	292.30377	277.96359	148.10497	154.59712	
791	7.900	276.08142	151.12361	292.30505	277.96402	148.10547	154.59692	
792	7.910	276.07932	151.12407	292.30585	277.96494	148.10651	154.59625	
793	7.920	276.07791	151.12444	292.30624	277.96579	148.10815	154.59489	
794	7.930	276.07709	151.12473	292.30637	277.96609	148.11023	154.59285	
795	7.940	276.07675	151.12491	292.30634	277.96558	148.11234	154.59039	
796	7.950	276.07684	151.12497	292.30615	277.96411	148.11403	154.58791	
797	7.960	276.07751	151.12485	292.30591	277.96182	148.11507	154.58586	
798	7.970	276.07892	151.12448	292.30548	277.95901	148.11533	154.58459	
799	7.980	276.08109	151.12389	292.30493	277.95599	148.11494	154.58418	
800	7.990	276.08383	151.12311	292.30432	277.95313	148.11403	154.58459	
801	8.000	276.08685	151.12224	292.30365	277.95096	148.11266	154.58588	
802	8.010	276.08984	151.12137	292.30298	277.94992	148.11089	154.58803	
803	8.020	276.09250	151.12061	292.30237	277.95004	148.10887	154.59081	
804	8.030	276.09467	151.11998	292.30188	277.95108	148.10692	154.59378	
805	8.040	276.09604	151.11960	292.30157	277.95239	148.10544	154.59625	
806	8.050	276.09622	151.11952	292.30151	277.95325	148.10489	154.59753	
807	8.060	276.09537	151.11978	292.30170	277.95322	148.10545	154.59723	
808	8.070	276.09387	151.12022	292.30200	277.95236	148.10703	154.59552	
809	8.080	276.09225	151.12074	292.30225	277.95117	148.10924	154.59283	
810	8.090	276.09067	151.12131	292.30237	277.94977	148.11166	154.58965	
811	8.100	276.08902	151.12193	292.30243	277.94791	148.11388	154.58636	
812	8.110	276.08731	151.12259	292.30249	277.94559	148.11552	154.58344	
813	8.120	276.08585	151.12317	292.30249	277.94336	148.11649	154.58121	
814	8.130	276.08496	151.12352	292.30249	277.94193	148.11676	154.57994	
815	8.140	276.08472	151.12360	292.30255	277.94168	148.11638	154.57980	
816	8.150	276.08493	151.12341	292.30273	277.94260	148.11537	154.58084	
817	8.160	276.08548	151.12308	292.30298	277.94452	148.11386	154.58292	
818	8.170	276.08633	151.12265	292.30316	277.94702	148.11211	154.58560	
